<svg width="135" height="52" fill="none" xmlns="http://www.w3.org/2000/svg"><path d="M0 24.698v15.269h10.034v-1.962H2.226v-4.584h6.108V31.46H2.226v-4.8h7.808v-1.961H0ZM15.707 24.698v15.269h8.07v-1.962h-5.823V24.698h-2.247ZM29.45 24.698v15.269h8.072v-1.962h-5.826V24.698H29.45ZM45.438 24.698h-2.243v15.269h2.243v-15.27ZM77.575 24.482c-5.825 0-7.547 4.643-7.547 7.83 0 3.272 1.722 7.856 7.547 7.856 2.442 0 4.167-.831 5.472-2.142v-5.472h-5.45v1.962H80.8v2.64a5.432 5.432 0 0 1-3.225.98c-4.604 0-5.282-4.36-5.282-5.825 0-1.464.678-5.846 5.282-5.846 1.461.011 2.86.591 3.9 1.616l1.398-1.44c-1.31-1.442-2.73-2.16-5.3-2.16M87.304 24.698v1.962h4.428v13.307h2.25V26.66h4.47v-1.962H87.303ZM109.383 24.482c-5.826 0-7.548 4.643-7.548 7.83 0 3.272 1.722 7.856 7.548 7.856 5.825 0 7.547-4.584 7.547-7.857 0-3.186-1.725-7.83-7.547-7.83Zm0 13.697c-4.605 0-5.283-4.404-5.283-5.868 0-1.464.678-5.846 5.283-5.846 4.604 0 5.255 4.388 5.255 5.846 0 1.458-.645 5.868-5.255 5.868ZM64.11 40.087l.245-.117V24.698h-2.259v10.148L50.862 23.612v2.7a1.119 1.119 0 0 0 .366.918l.747.747v11.999h2.25v-9.768l9.884 9.879ZM34.732 10.706 45.438 0v1.86a.9.9 0 0 1-.324.774l-3.822 3.822 3.822 3.821a.9.9 0 0 1 .324.774v1.86l-1.05-1.05-3.096 3.096 3.822 3.822a.9.9 0 0 1 .324.77v1.864L34.732 10.706Zm2.31 0 3.096 3.096 3.095-3.096-3.095-3.095-3.096 3.095ZM134.725 40.087l.246-.117V24.698h-2.25v10.148l-9.899-9.9-.219.106v14.92h2.25v-9.764l9.872 9.879ZM54.747 46.746a1.695 1.695 0 0 0-.567-.228 2.65 2.65 0 0 0-.576-.063h-1.575v5.283h.699v-2.4h.984c.203 0 .405-.027.6-.084.19-.05.369-.138.525-.258.155-.12.28-.274.366-.45.096-.2.143-.422.138-.645a1.398 1.398 0 0 0-.168-.71 1.265 1.265 0 0 0-.432-.45m-.096 1.16a.746.746 0 0 1-.081.37.657.657 0 0 1-.207.236.844.844 0 0 1-.3.132c-.12.03-.245.045-.369.045h-.96v-1.58h.933c.125-.001.25.015.372.047a.949.949 0 0 1 .318.141.79.79 0 0 1 .219.25.747.747 0 0 1 .08.36M63.296 49.21c.165-.05.319-.131.453-.238.144-.112.262-.254.345-.417.1-.204.147-.43.138-.657a1.42 1.42 0 0 0-.117-.6 1.333 1.333 0 0 0-.3-.417 1.365 1.365 0 0 0-.408-.252 2.595 2.595 0 0 0-.816-.165h-1.694v5.274h.698v-2.4h.702l1.428 2.4h.771l-1.5-2.466c.102-.019.202-.044.3-.075m.198-1.056a.598.598 0 0 1-.147.25.94.94 0 0 1-.324.203 1.56 1.56 0 0 1-.564.084h-.9v-1.58h.9a1.56 1.56 0 0 1 .564.083.94.94 0 0 1 .324.204.6.6 0 0 1 .147.25.773.773 0 0 1 0 .506ZM74.246 47.115a2.592 2.592 0 0 0-.864-.579 3.033 3.033 0 0 0-2.214 0c-.324.133-.618.33-.864.58a2.7 2.7 0 0 0-.561.878 3.177 3.177 0 0 0 0 2.22c.127.328.318.628.56.882.246.25.54.448.865.58a3.096 3.096 0 0 0 2.214 0 2.54 2.54 0 0 0 1.425-1.462c.138-.353.206-.73.2-1.11a3.053 3.053 0 0 0-.2-1.11 2.633 2.633 0 0 0-.561-.879Zm-1.971-.135c.29-.005.578.05.846.162.242.103.46.255.639.447.18.195.318.423.408.672a2.532 2.532 0 0 1 0 1.683c-.09.25-.229.478-.408.672-.18.193-.397.345-.64.447a2.298 2.298 0 0 1-1.694 0 1.864 1.864 0 0 1-.64-.447 1.974 1.974 0 0 1-.404-.672 2.532 2.532 0 0 1 0-1.683c.089-.249.226-.477.405-.672.179-.192.397-.344.639-.447.27-.11.558-.165.849-.162ZM83.305 46.746a1.71 1.71 0 0 0-.57-.228 2.65 2.65 0 0 0-.576-.063h-1.575v5.283h.711v-2.4h.984c.203 0 .405-.027.6-.084.19-.05.369-.138.525-.258.156-.12.282-.273.37-.45a1.45 1.45 0 0 0 .134-.645 1.398 1.398 0 0 0-.168-.71 1.26 1.26 0 0 0-.429-.45m-.099 1.16a.823.823 0 0 1-.078.37.666.666 0 0 1-.21.236.844.844 0 0 1-.3.132c-.12.03-.244.045-.369.045h-.96v-1.58h.933c.127-.001.253.015.375.047a.79.79 0 0 1 .534.39.747.747 0 0 1 .081.36M90.136 49.344h2.463v-.654h-2.463v-1.58h2.628v-.655h-3.327v5.295h3.44v-.654h-2.741v-1.752ZM100.848 49.21c.165-.052.32-.132.456-.238.144-.112.262-.255.345-.417.1-.204.147-.43.138-.657a1.454 1.454 0 0 0-.117-.6 1.318 1.318 0 0 0-.3-.414 1.373 1.373 0 0 0-.411-.252 2.683 2.683 0 0 0-.813-.162h-1.722v5.268h.696v-2.4h.705l1.425 2.4h.801l-1.5-2.463c.102-.021.201-.048.3-.078m.201-1.056a.626.626 0 0 1-.15.25.931.931 0 0 1-.321.203c-.181.061-.372.09-.564.084h-.9v-1.58h.9c.192-.006.383.022.564.083a.93.93 0 0 1 .321.204.6.6 0 0 1 .15.246c.025.083.039.169.042.255a.92.92 0 0 1-.042.255ZM106.806 47.11h1.734v4.64h.696v-4.64h1.733v-.655h-4.163v.654ZM116.963 46.455h-.696v5.295h.696v-5.295ZM123.569 49.344h2.463v-.654h-2.463v-1.58h2.628v-.655h-3.327v5.295h3.441v-.654h-2.742v-1.752ZM134.776 49.536a1.495 1.495 0 0 0-.522-.453 2.992 2.992 0 0 0-.651-.249 5.02 5.02 0 0 1-.618-.204 1.21 1.21 0 0 1-.444-.3.729.729 0 0 1-.165-.506.811.811 0 0 1 .081-.372.776.776 0 0 1 .216-.261c.099-.072.21-.126.327-.16.304-.093.631-.074.921.055.153.083.283.201.381.345l.066.09.6-.427-.069-.09a1.553 1.553 0 0 0-.66-.527 2.238 2.238 0 0 0-1.461-.06c-.2.06-.388.155-.555.282-.161.129-.294.29-.39.474a1.46 1.46 0 0 0-.141.666 1.55 1.55 0 0 0 .123.648c.074.169.185.32.324.44.134.118.286.213.45.282.156.066.321.13.489.183.168.054.324.102.477.156.139.048.272.108.399.18.106.06.195.145.261.246a.687.687 0 0 1 .093.378.796.796 0 0 1-.3.636.962.962 0 0 1-.327.18 1.198 1.198 0 0 1-.408.066 1.325 1.325 0 0 1-.624-.144 1.136 1.136 0 0 1-.438-.435l-.06-.105-.648.432.069.093c.193.279.46.497.771.63.307.124.635.186.966.183.214 0 .427-.033.63-.099.199-.063.384-.165.543-.3a1.465 1.465 0 0 0 .516-1.143 1.347 1.347 0 0 0-.216-.807" fill="#fff"/></svg>